<mxfile host="app.diagrams.net" modified="2023-10-30T20:40:07.932Z" agent="Mozilla/5.0 (Macintosh; Intel Mac OS X 10_15_7) AppleWebKit/537.36 (KHTML, like Gecko) Chrome/118.0.0.0 Safari/537.36" etag="nGKuJ4Im6SO30vYHNPfC" version="22.0.8" type="device">
  <diagram name="PÃ¡gina-1" id="IqrueXw9lbJWWxE_JWri">
    <mxGraphModel dx="2390" dy="1317" grid="1" gridSize="10" guides="1" tooltips="1" connect="1" arrows="1" fold="1" page="1" pageScale="1" pageWidth="827" pageHeight="1169" math="0" shadow="0">
      <root>
        <mxCell id="0" />
        <mxCell id="1" parent="0" />
        <mxCell id="RRjGU57DZHpj8clU0xT9-6" value="" style="edgeStyle=orthogonalEdgeStyle;rounded=0;orthogonalLoop=1;jettySize=auto;html=1;" edge="1" parent="1" source="RRjGU57DZHpj8clU0xT9-1" target="RRjGU57DZHpj8clU0xT9-5">
          <mxGeometry relative="1" as="geometry" />
        </mxCell>
        <mxCell id="RRjGU57DZHpj8clU0xT9-1" value="Starts Payment Module" style="ellipse;whiteSpace=wrap;html=1;" vertex="1" parent="1">
          <mxGeometry x="344" y="30" width="170" height="80" as="geometry" />
        </mxCell>
        <mxCell id="RRjGU57DZHpj8clU0xT9-4" value="&lt;h1 style=&quot;border-color: var(--border-color);&quot;&gt;Logic 3- Acceptable Payments &amp;amp; procuct inventory&lt;/h1&gt;&lt;p&gt;VARIABLES:&lt;/p&gt;&lt;p&gt;-MINSTOCK = 5&lt;/p&gt;&lt;p&gt;-TOTAL&lt;/p&gt;&lt;p&gt;-PRODUCTS ID&lt;/p&gt;" style="text;html=1;strokeColor=none;fillColor=none;spacing=5;spacingTop=-20;whiteSpace=wrap;overflow=hidden;rounded=0;" vertex="1" parent="1">
          <mxGeometry x="20" y="20" width="230" height="260" as="geometry" />
        </mxCell>
        <mxCell id="RRjGU57DZHpj8clU0xT9-10" value="" style="edgeStyle=orthogonalEdgeStyle;rounded=0;orthogonalLoop=1;jettySize=auto;html=1;" edge="1" parent="1" source="RRjGU57DZHpj8clU0xT9-5" target="RRjGU57DZHpj8clU0xT9-9">
          <mxGeometry relative="1" as="geometry" />
        </mxCell>
        <mxCell id="RRjGU57DZHpj8clU0xT9-5" value="Description: click LCD screen Print Order" style="whiteSpace=wrap;html=1;" vertex="1" parent="1">
          <mxGeometry x="369" y="200" width="120" height="60" as="geometry" />
        </mxCell>
        <mxCell id="RRjGU57DZHpj8clU0xT9-14" value="" style="edgeStyle=orthogonalEdgeStyle;rounded=0;orthogonalLoop=1;jettySize=auto;html=1;" edge="1" parent="1" source="RRjGU57DZHpj8clU0xT9-9" target="RRjGU57DZHpj8clU0xT9-13">
          <mxGeometry relative="1" as="geometry" />
        </mxCell>
        <mxCell id="RRjGU57DZHpj8clU0xT9-9" value="CLICK PAY" style="rhombus;whiteSpace=wrap;html=1;" vertex="1" parent="1">
          <mxGeometry x="389" y="330" width="80" height="80" as="geometry" />
        </mxCell>
        <mxCell id="RRjGU57DZHpj8clU0xT9-16" value="" style="edgeStyle=orthogonalEdgeStyle;rounded=0;orthogonalLoop=1;jettySize=auto;html=1;" edge="1" parent="1" source="RRjGU57DZHpj8clU0xT9-13" target="RRjGU57DZHpj8clU0xT9-15">
          <mxGeometry relative="1" as="geometry" />
        </mxCell>
        <mxCell id="RRjGU57DZHpj8clU0xT9-19" value="NO" style="edgeLabel;html=1;align=center;verticalAlign=middle;resizable=0;points=[];" vertex="1" connectable="0" parent="RRjGU57DZHpj8clU0xT9-16">
          <mxGeometry x="-0.3659" y="-1" relative="1" as="geometry">
            <mxPoint as="offset" />
          </mxGeometry>
        </mxCell>
        <mxCell id="RRjGU57DZHpj8clU0xT9-24" value="" style="edgeStyle=orthogonalEdgeStyle;rounded=0;orthogonalLoop=1;jettySize=auto;html=1;" edge="1" parent="1" source="RRjGU57DZHpj8clU0xT9-13" target="RRjGU57DZHpj8clU0xT9-23">
          <mxGeometry relative="1" as="geometry" />
        </mxCell>
        <mxCell id="RRjGU57DZHpj8clU0xT9-13" value="SELCT PAY WITH&amp;nbsp; CREDIT CARD" style="rhombus;whiteSpace=wrap;html=1;" vertex="1" parent="1">
          <mxGeometry x="549" y="320" width="100" height="100" as="geometry" />
        </mxCell>
        <mxCell id="RRjGU57DZHpj8clU0xT9-26" value="" style="edgeStyle=orthogonalEdgeStyle;rounded=0;orthogonalLoop=1;jettySize=auto;html=1;" edge="1" parent="1" source="RRjGU57DZHpj8clU0xT9-15" target="RRjGU57DZHpj8clU0xT9-25">
          <mxGeometry relative="1" as="geometry" />
        </mxCell>
        <mxCell id="RRjGU57DZHpj8clU0xT9-15" value="SELECT PAY NFC" style="rhombus;whiteSpace=wrap;html=1;" vertex="1" parent="1">
          <mxGeometry x="690" y="320" width="100" height="100" as="geometry" />
        </mxCell>
        <mxCell id="RRjGU57DZHpj8clU0xT9-31" value="" style="edgeStyle=orthogonalEdgeStyle;rounded=0;orthogonalLoop=1;jettySize=auto;html=1;" edge="1" parent="1" source="RRjGU57DZHpj8clU0xT9-23" target="RRjGU57DZHpj8clU0xT9-30">
          <mxGeometry relative="1" as="geometry" />
        </mxCell>
        <mxCell id="RRjGU57DZHpj8clU0xT9-23" value="ACTIVE SWIPE AND TAP COMPONENTS" style="whiteSpace=wrap;html=1;" vertex="1" parent="1">
          <mxGeometry x="539" y="520" width="120" height="60" as="geometry" />
        </mxCell>
        <mxCell id="RRjGU57DZHpj8clU0xT9-32" style="edgeStyle=orthogonalEdgeStyle;rounded=0;orthogonalLoop=1;jettySize=auto;html=1;" edge="1" parent="1" source="RRjGU57DZHpj8clU0xT9-25" target="RRjGU57DZHpj8clU0xT9-30">
          <mxGeometry relative="1" as="geometry" />
        </mxCell>
        <mxCell id="RRjGU57DZHpj8clU0xT9-25" value="ACTIVE TAP COMPONENT" style="whiteSpace=wrap;html=1;" vertex="1" parent="1">
          <mxGeometry x="680" y="520" width="120" height="60" as="geometry" />
        </mxCell>
        <mxCell id="RRjGU57DZHpj8clU0xT9-35" value="" style="edgeStyle=orthogonalEdgeStyle;rounded=0;orthogonalLoop=1;jettySize=auto;html=1;" edge="1" parent="1" source="RRjGU57DZHpj8clU0xT9-30" target="RRjGU57DZHpj8clU0xT9-34">
          <mxGeometry relative="1" as="geometry" />
        </mxCell>
        <mxCell id="RRjGU57DZHpj8clU0xT9-38" value="" style="edgeStyle=orthogonalEdgeStyle;rounded=0;orthogonalLoop=1;jettySize=auto;html=1;" edge="1" parent="1" source="RRjGU57DZHpj8clU0xT9-30" target="RRjGU57DZHpj8clU0xT9-37">
          <mxGeometry relative="1" as="geometry" />
        </mxCell>
        <mxCell id="RRjGU57DZHpj8clU0xT9-30" value="PAYMENT FAIL?" style="rhombus;whiteSpace=wrap;html=1;" vertex="1" parent="1">
          <mxGeometry x="630" y="620" width="80" height="80" as="geometry" />
        </mxCell>
        <mxCell id="RRjGU57DZHpj8clU0xT9-36" style="edgeStyle=orthogonalEdgeStyle;rounded=0;orthogonalLoop=1;jettySize=auto;html=1;" edge="1" parent="1" source="RRjGU57DZHpj8clU0xT9-34" target="RRjGU57DZHpj8clU0xT9-13">
          <mxGeometry relative="1" as="geometry" />
        </mxCell>
        <mxCell id="RRjGU57DZHpj8clU0xT9-34" value="DISPLAY: PAYMENT FAILED PLEASE TRY AGAIN" style="whiteSpace=wrap;html=1;" vertex="1" parent="1">
          <mxGeometry x="269" y="410" width="120" height="60" as="geometry" />
        </mxCell>
        <mxCell id="RRjGU57DZHpj8clU0xT9-40" value="" style="edgeStyle=orthogonalEdgeStyle;rounded=0;orthogonalLoop=1;jettySize=auto;html=1;" edge="1" parent="1" source="RRjGU57DZHpj8clU0xT9-37" target="RRjGU57DZHpj8clU0xT9-39">
          <mxGeometry relative="1" as="geometry" />
        </mxCell>
        <mxCell id="RRjGU57DZHpj8clU0xT9-37" value="PRODCTQUANTIRY -&amp;nbsp; PRODCUTORDER" style="whiteSpace=wrap;html=1;" vertex="1" parent="1">
          <mxGeometry x="550" y="740" width="240" height="60" as="geometry" />
        </mxCell>
        <mxCell id="RRjGU57DZHpj8clU0xT9-42" value="" style="edgeStyle=orthogonalEdgeStyle;rounded=0;orthogonalLoop=1;jettySize=auto;html=1;" edge="1" parent="1" source="RRjGU57DZHpj8clU0xT9-39" target="RRjGU57DZHpj8clU0xT9-41">
          <mxGeometry relative="1" as="geometry" />
        </mxCell>
        <mxCell id="RRjGU57DZHpj8clU0xT9-49" style="edgeStyle=orthogonalEdgeStyle;rounded=0;orthogonalLoop=1;jettySize=auto;html=1;entryX=1;entryY=0.75;entryDx=0;entryDy=0;" edge="1" parent="1" source="RRjGU57DZHpj8clU0xT9-39" target="RRjGU57DZHpj8clU0xT9-46">
          <mxGeometry relative="1" as="geometry" />
        </mxCell>
        <mxCell id="RRjGU57DZHpj8clU0xT9-39" value="PRODUCTCUANTIRY IS LESS THAN MINSTOCK" style="rhombus;whiteSpace=wrap;html=1;" vertex="1" parent="1">
          <mxGeometry x="595" y="830" width="150" height="150" as="geometry" />
        </mxCell>
        <mxCell id="RRjGU57DZHpj8clU0xT9-45" value="" style="edgeStyle=orthogonalEdgeStyle;rounded=0;orthogonalLoop=1;jettySize=auto;html=1;" edge="1" parent="1" source="RRjGU57DZHpj8clU0xT9-41" target="RRjGU57DZHpj8clU0xT9-44">
          <mxGeometry relative="1" as="geometry" />
        </mxCell>
        <mxCell id="RRjGU57DZHpj8clU0xT9-41" value="PRINT TICKET AND THANKS FOR BUYING" style="whiteSpace=wrap;html=1;" vertex="1" parent="1">
          <mxGeometry x="394" y="780" width="120" height="60" as="geometry" />
        </mxCell>
        <mxCell id="RRjGU57DZHpj8clU0xT9-44" value="END OF MODULE" style="ellipse;whiteSpace=wrap;html=1;" vertex="1" parent="1">
          <mxGeometry x="250" y="690" width="130" height="80" as="geometry" />
        </mxCell>
        <mxCell id="RRjGU57DZHpj8clU0xT9-48" style="edgeStyle=orthogonalEdgeStyle;rounded=0;orthogonalLoop=1;jettySize=auto;html=1;exitX=0;exitY=0.75;exitDx=0;exitDy=0;" edge="1" parent="1" source="RRjGU57DZHpj8clU0xT9-46" target="RRjGU57DZHpj8clU0xT9-41">
          <mxGeometry relative="1" as="geometry">
            <mxPoint x="490" y="1040.0769230769229" as="sourcePoint" />
          </mxGeometry>
        </mxCell>
        <mxCell id="RRjGU57DZHpj8clU0xT9-46" value="ORDER MORE PRODUCTS OF PRODCT" style="whiteSpace=wrap;html=1;" vertex="1" parent="1">
          <mxGeometry x="500" y="950" width="120" height="60" as="geometry" />
        </mxCell>
        <mxCell id="RRjGU57DZHpj8clU0xT9-51" style="edgeStyle=orthogonalEdgeStyle;rounded=0;orthogonalLoop=1;jettySize=auto;html=1;" edge="1" parent="1">
          <mxGeometry relative="1" as="geometry">
            <mxPoint x="330" y="70" as="targetPoint" />
            <mxPoint x="110" y="890" as="sourcePoint" />
            <Array as="points">
              <mxPoint x="230" y="891" />
              <mxPoint x="230" y="70" />
            </Array>
          </mxGeometry>
        </mxCell>
        <mxCell id="RRjGU57DZHpj8clU0xT9-50" value="START CANCELL" style="ellipse;whiteSpace=wrap;html=1;" vertex="1" parent="1">
          <mxGeometry x="60" y="900" width="120" height="80" as="geometry" />
        </mxCell>
      </root>
    </mxGraphModel>
  </diagram>
</mxfile>
